# xmcd
# Track frame offsets:
# 182
# 10205
# 22302
# 31752
# 41697
# 53932
# 63752
# 79587
# 91547
# 99685
# 112877
# 129130
# 141440
# 153405
# 166425
# 175790
#
# Disc length: 2509 seconds
# Revision: 0
# Processed by: cddbd v1.4PL0 Copyright (c) Steve Scherf et al.
# Submitted via: VisiTrax 2.9.5.181 - For more info visit www.synapsa.com
#
DISCID=c109cb10
DTITLE=Various Artist - 16 All-Time Country Greats vol 6
DYEAR=1900
DGENRE=
TTITLE0=Conway Twitty - It's only make believe
TTITLE1=Hank Williams - Your cheatin heart
TTITLE2=Patsy Cline - Love love love me honey do
TTITLE3=Johnny Horton - Honky Tonk Man
TTITLE4=Carl Perkins - We did it '54
TTITLE5=Faron Young - Sweet dreams
TTITLE6=Boxcar Willie - From a boxcar door
TTITLE7=Jim Reeves - Mexican Joe
TTITLE8=Gene Autry - A gay rachero
TTITLE9=Bobby Helms - My special angel
TTITLE10=Roger Miller - Honey
TTITLE11=Johnny Cash - Next in line
TTITLE12=Jerry Wallace - Release me
TTITLE13=Hank Williams - Jambalaya
TTITLE14=Les Paul and Mary Ford - Tiger Rag
TTITLE15=George Jones - If my heart had windows
EXTD=
EXTT0=
EXTT1=
EXTT2=
EXTT3=
EXTT4=
EXTT5=
EXTT6=
EXTT7=
EXTT8=
EXTT9=
EXTT10=
EXTT11=
EXTT12=
EXTT13=
EXTT14=
EXTT15=
PLAYORDER=
